<?xml version="1.0" encoding="utf-8"?>
<!-- Generator: Adobe Illustrator 22.1.0, SVG Export Plug-In . SVG Version: 6.00 Build 0)  -->
<!DOCTYPE svg PUBLIC "-//W3C//DTD SVG 1.1//EN" "http://www.w3.org/Graphics/SVG/1.1/DTD/svg11.dtd">
<svg version="1.1" id="Layer_1" xmlns="http://www.w3.org/2000/svg" xmlns:xlink="http://www.w3.org/1999/xlink" x="0px" y="0px"
	 viewBox="0 0 612 792" enable-background="new 0 0 612 792" xml:space="preserve">
<g>
	<path fill="#98CBEE" d="M305.3,425.4c-2.1,0-4.1-0.2-6-0.5c-13.5,7.1-31.1,11.9-40.6-3.2c-4.5-7.2-3.9-14.8,0.6-20.8
		c-1.9-1.9-3.6-4-5.2-6.2c-7.9,9.1-7.9,19.9-0.7,31.3c6.8,10.8,16.4,13.8,25.7,13.4c0,0,0,0,0,0c2.7-0.1,5.4-0.5,8-1.2c0,0,0,0,0,0
		c9-2.1,17-6.5,20.9-9c4.3-2.7,8.1-5.3,11.4-7.9C315.2,424,310.3,425.4,305.3,425.4z"/>
	<path fill="#8DC641" d="M277.3,405.5L277.3,405.5c-0.1-0.2-0.1-0.5-0.2-0.7c-13.3-8.4-27.7-22.1-18.5-38.5
		c4.1-7.3,11-10.4,18.4-9.4c0.8-2.6,1.8-5.1,3-7.5c-11.7-2.5-21.1,2.6-27.7,14.3c-14.3,25.4,13.9,44.4,23.1,49.5
		c3.4,1.9,6.7,3.6,9.7,5.1C281.5,415,278.8,410.6,277.3,405.5z"/>
	<g>
		<path fill="#FEBD11" d="M308.1,365.5c13.6-8.3,33.7-16,44.3,0.4c4.7,7.1,4.2,14.8-0.3,20.9c1.9,1.9,3.7,3.9,5.3,6.1
			c7.8-9.2,7.6-20,0.2-31.3c-15.9-24.4-45.8-8.2-54.6-2.4c-7.4,4.8-13.2,9.5-17.6,13.9c5.3-4.8,12.4-7.6,20.6-7.6
			C306.8,365.5,307.4,365.5,308.1,365.5z"/>
	</g>
	<path fill="#CADB31" d="M281.8,377.1c0,0-0.1,0.1-0.1,0.1c0.1-0.1,0.2-0.2,0.3-0.3c0,0,0.1-0.1,0.1-0.1
		c0.5-15.9,5.1-36.7,24.5-36.7c7.8,0,13.6,3.9,16.6,10c2.6-0.7,5.3-1.2,8.1-1.4c-3.9-10.2-12.7-15.3-25.4-15.3
		c-29.2,0-31.9,33.9-31.9,44.4c0,11.6,1.1,20.8,3.3,27.8l0,0c-0.9-3-1.4-6.3-1.4-9.9C275.9,388.5,278.1,382.1,281.8,377.1z"/>
	<path fill="#F28D29" d="M335.1,374.8c-4.9-2.5-9.5-4.6-13.7-6.2c5.3,2.7,9.2,7.4,11.8,14.3c13.7,7.8,29.2,21.1,20.5,38
		c-4,7.7-11,11.1-18.8,10c-0.7,2.6-1.5,5.1-2.6,7.6c12,2.3,21.5-3.2,27.7-15.3C373.4,397.5,344.5,379.6,335.1,374.8z"/>
	<path fill="#2CA8E0" d="M306.1,365.5c-17.6,0-30.2,12.9-30.2,30.2c0,17.4,11.6,29.8,29.4,29.8c10.1,0,19.5-6,23.7-14.8h0.3
		c0,16.2-3.8,39.9-24.6,39.9c-8.7,0-15-4.8-17.6-12.3c-2.6,0.6-5.3,1-8,1.2c3.4,11.9,12.6,17.9,26.3,17.9
		c29.2,0,31.8-33.9,31.8-44.4C337.3,378.1,327.7,365.5,306.1,365.5z M305.4,418.7c-13.6,0-21.5-10.6-21.5-23.6
		c0-12.4,8.7-22.9,21.4-22.9c15.5,0,22.3,10.3,22.3,22.9C327.6,408.3,319.4,418.7,305.4,418.7z"/>
</g>
</svg>
