<?xml version="1.0" encoding="utf-8"?>
<!-- Generator: Adobe Illustrator 26.3.1, SVG Export Plug-In . SVG Version: 6.00 Build 0)  -->
<svg version="1.1" id="Layer_1" xmlns="http://www.w3.org/2000/svg" xmlns:xlink="http://www.w3.org/1999/xlink" x="0px" y="0px"
	 viewBox="0 0 988.26 217.27" style="enable-background:new 0 0 988.26 217.27;" xml:space="preserve">
<style type="text/css">
	.st0{fill:#FFFFFF;}
	.st1{fill:none;}
	.st2{fill:#8AC441;}
	.st3{fill:#C7D930;}
	.st4{fill:#EF8B25;}
	.st5{fill:#FBBA16;}
	.st6{fill:#8CD2EF;}
</style>
<g>
	<g>
		<g>
			<path class="st0" d="M323,90.8c-0.65-17.04-13.77-24.69-29.5-24.69c-12.24,0-26.66,4.81-26.66,19.45
				c0,12.24,13.99,16.61,23.38,19.01l18.36,4.16c15.73,2.4,32.12,11.58,32.12,31.25c0,24.48-24.26,33.88-45.24,33.88
				c-26.22,0-44.15-12.24-46.33-39.78h13.77c1.09,18.58,14.86,28.19,33.22,28.19c12.89,0,30.81-5.68,30.81-21.42
				c0-13.11-12.24-17.48-24.7-20.54l-17.7-3.93c-17.92-4.81-31.47-10.93-31.47-30.16c0-22.95,22.51-31.69,42.4-31.69
				c22.51,0,40.43,11.8,41.3,36.27H323z"/>
			<path class="st0" d="M356.44,57.8h13.77v112.76h-13.77V57.8z"/>
			<path class="st0" d="M427.47,111.99L387.04,57.8h17.27l32.12,42.83L467.9,57.8h17.27l-40.65,53.98l43.93,58.79h-17.48
				l-35.4-47.42l-34.75,47.42h-17.05L427.47,111.99z"/>
			<path class="st0" d="M540.46,57.8h13.77v19.45h0.44c5.03-13.55,20.11-22.73,36.06-22.73c31.69,0,41.3,16.61,41.3,43.49v72.56
				h-13.76V100.2c0-19.45-6.34-34.09-28.63-34.09c-21.85,0-34.97,16.61-35.4,38.68v65.78h-13.77V57.8z"/>
			<path class="st0" d="M653.89,57.8h13.77v112.76h-13.77V57.8z"/>
			<path class="st0" d="M689.51,57.8h13.77v19.45h0.44c5.03-13.55,20.11-22.73,36.06-22.73c31.69,0,41.3,16.61,41.3,43.49v72.56
				h-13.77V100.2c0-19.45-6.33-34.09-28.63-34.09c-21.85,0-34.97,16.61-35.4,38.68v65.78h-13.77V57.8z"/>
			<path class="st0" d="M802.06,117.9c0.22,20.1,10.71,44.36,37.15,44.36c20.11,0,31.03-11.8,35.41-28.85h13.76
				c-5.9,25.57-20.76,40.43-49.17,40.43c-35.84,0-50.92-27.54-50.92-59.66c0-29.72,15.08-59.66,50.92-59.66
				c36.28,0,50.7,31.69,49.61,63.38H802.06z M875.06,106.31c-0.66-20.76-13.55-40.21-35.84-40.21c-22.51,0-34.97,19.67-37.15,40.21
				H875.06z"/>
			<path class="st0" d="M970.56,90.8c-0.65-17.04-13.77-24.69-29.5-24.69c-12.24,0-26.66,4.81-26.66,19.45
				c0,12.24,13.99,16.61,23.38,19.01l18.36,4.16c15.73,2.4,32.12,11.58,32.12,31.25c0,24.48-24.26,33.88-45.24,33.88
				c-26.22,0-44.14-12.24-46.33-39.78h13.77c1.09,18.58,14.86,28.19,33.22,28.19c12.89,0,30.81-5.68,30.81-21.42
				c0-13.11-12.24-17.48-24.69-20.54l-17.7-3.93c-17.92-4.81-31.47-10.93-31.47-30.16c0-22.95,22.51-31.69,42.4-31.69
				c22.51,0,40.43,11.8,41.31,36.27H970.56z"/>
		</g>
	</g>
	<g id="XMLID_00000163070326576827576020000011545795699997653889_">
		<path id="XMLID_00000121961554705163688410000007297235298980357812_" class="st1" d="M57.01,138c0.06,0.1,0.13,0.19,0.19,0.29
			c-0.45-0.68-0.88-1.37-1.29-2.07c0.22,0.36,0.43,0.73,0.65,1.08C56.71,137.53,56.86,137.77,57.01,138z"/>
		<path id="XMLID_00000134963708008706511110000012258600711480082574_" class="st1" d="M53.05,130.73c0.07,0.15,0.14,0.3,0.21,0.46
			c-0.27-0.6-0.54-1.2-0.79-1.81c0.11,0.26,0.21,0.52,0.32,0.78C52.88,130.35,52.97,130.54,53.05,130.73z"/>
		<path id="XMLID_00000182525058344155066930000006561256576495089538_" class="st1" d="M54.26,133.25c0.3,0.59,0.61,1.17,0.93,1.74
			c0.02,0.03,0.04,0.07,0.06,0.1c-0.47-0.84-0.93-1.7-1.36-2.57c0.01,0.03,0.03,0.06,0.04,0.09
			C54.04,132.82,54.15,133.04,54.26,133.25z"/>
		<path id="XMLID_00000022525151408224822770000009084886042077996952_" class="st1" d="M38.64,44.71
			c-3.32,1.17-6.49,2.93-9.49,5.27c-3.01,2.34-5.59,5.38-7.73,9.1c-2.67,4.63-4.15,9.24-4.42,13.82c-0.27,4.58,0.35,9.08,1.89,13.49
			c1.53,4.41,3.77,8.65,6.71,12.73c2.94,4.07,6.26,7.92,9.96,11.54c3.7,3.62,7.64,6.97,11.81,10.05c0.95,0.7,1.88,1.36,2.82,2.02
			c-0.03-0.1-0.05-0.19-0.07-0.29l0,0c0.09,0.35,0.21,0.7,0.31,1.05c-1.35-4.73-2.1-9.7-2.1-14.86c0-0.25,0.02-0.5,0.02-0.75h-0.02
			c0-13.5,0.35-17.71,0.65-25.75c0.44-11.6,1.42-22,3.29-32.13c0.43-2.36,0.95-4.64,1.52-6.87c-1.63-0.25-3.33-0.36-5.11-0.31
			C45.3,42.91,41.96,43.54,38.64,44.71z"/>
		<path id="XMLID_00000038380930286019733680000004732533328890983067_" class="st1" d="M51.77,127.65
			c0.03,0.08,0.06,0.16,0.09,0.23c-0.33-0.87-0.65-1.76-0.93-2.65c0.02,0.05,0.03,0.1,0.05,0.15
			C51.23,126.14,51.49,126.9,51.77,127.65z"/>
		<path id="XMLID_00000062158124328467738620000003258919577374500750_" class="st2" d="M53.34,131.34
			c0.17,0.38,0.34,0.75,0.53,1.12C53.68,132.09,53.51,131.71,53.34,131.34z"/>
		<path id="XMLID_00000018929055196232273140000003983443204382752392_" class="st2" d="M55.58,135.67c-0.1-0.17-0.2-0.35-0.3-0.52
			c0.19,0.34,0.39,0.66,0.58,0.99C55.77,135.98,55.67,135.83,55.58,135.67z"/>
		<path id="XMLID_00000046339203208410608810000005338752165024817062_" class="st2" d="M51.96,128.12
			c-0.01-0.03-0.02-0.06-0.03-0.09c0.15,0.39,0.31,0.78,0.47,1.16C52.25,128.84,52.1,128.48,51.96,128.12z"/>
		<path id="XMLID_00000143594655834749153160000004084964911537789580_" class="st2" d="M50.53,123.89c0.11,0.36,0.2,0.73,0.32,1.09
			C50.74,124.62,50.64,124.26,50.53,123.89z"/>
		<path id="XMLID_00000165210745522357488410000013977238300690545541_" class="st2" d="M57.2,138.29c-0.06-0.1-0.13-0.19-0.19-0.29
			c-0.15-0.23-0.3-0.47-0.45-0.7c-0.22-0.36-0.44-0.72-0.65-1.08c-0.22-0.37-0.45-0.74-0.66-1.12c-0.02-0.03-0.04-0.07-0.06-0.1
			c-0.32-0.57-0.63-1.16-0.93-1.74c-0.11-0.21-0.22-0.42-0.33-0.64c-0.01-0.03-0.03-0.06-0.04-0.09c-0.22-0.44-0.42-0.89-0.63-1.33
			c-0.07-0.15-0.15-0.3-0.21-0.46c-0.09-0.19-0.18-0.38-0.26-0.57c-0.11-0.26-0.21-0.52-0.32-0.78c-0.21-0.5-0.42-1-0.61-1.51
			c-0.03-0.08-0.06-0.15-0.09-0.23c-0.28-0.75-0.54-1.51-0.79-2.27c-0.02-0.05-0.03-0.1-0.05-0.15c-0.19-0.57-0.35-1.16-0.51-1.74
			c-0.1-0.35-0.21-0.7-0.31-1.05l0,0c0.03,0.1,0.04,0.19,0.07,0.29c-0.94-0.66-1.87-1.32-2.82-2.02
			c-4.18-3.07-8.12-6.42-11.81-10.05c-3.7-3.62-7.02-7.47-9.96-11.54c-2.94-4.07-5.18-8.31-6.71-12.73
			c-1.53-4.42-2.16-8.91-1.89-13.49c0.27-4.58,1.75-9.19,4.42-13.82c2.15-3.72,4.73-6.76,7.73-9.1c3.01-2.34,6.17-4.1,9.49-5.27
			c3.32-1.17,6.67-1.8,10.03-1.9c1.78-0.05,3.47,0.06,5.11,0.31c1.35-5.3,3.08-10.19,5.14-14.52c-2.51-0.53-5.1-0.86-7.76-0.97
			c-5.16-0.23-10.25,0.51-15.25,2.2c-5,1.69-9.82,4.4-14.45,8.12c-4.63,3.72-8.71,8.64-12.25,14.76c-4.3,7.44-6.67,15.09-7.12,22.93
			c-0.45,7.84,1.24,15.71,5.07,23.6c1.12,2.31,2.52,4.64,4.12,6.97c2.72,3.95,6.09,7.89,10,11.72c1.66,1.62,3.39,3.22,5.23,4.79
			c7.84,6.68,16.35,12.73,26.18,18.91c6.81,4.28,10.29,6.69,21.98,13.44l0.01-0.02c0.22,0.13,0.42,0.27,0.64,0.39
			c0.4,0.23,0.8,0.44,1.2,0.65c0,0-0.01,0-0.01-0.01c-0.78-0.43-1.55-0.87-2.31-1.34c-0.18-0.11-0.35-0.22-0.52-0.33
			c-0.58-0.37-1.16-0.74-1.73-1.12c-0.22-0.15-0.43-0.31-0.65-0.46c-0.51-0.36-1.02-0.72-1.52-1.1c-0.24-0.18-0.47-0.37-0.7-0.55
			c-0.47-0.37-0.94-0.74-1.39-1.12c-0.24-0.2-0.47-0.4-0.7-0.6c-0.44-0.38-0.88-0.77-1.31-1.17c-0.23-0.21-0.45-0.43-0.68-0.65
			c-0.42-0.4-0.84-0.81-1.24-1.22c-0.22-0.22-0.43-0.45-0.65-0.68c-0.4-0.42-0.8-0.85-1.18-1.29c-0.2-0.23-0.41-0.47-0.61-0.7
			c-0.38-0.45-0.76-0.9-1.13-1.36c-0.19-0.23-0.37-0.47-0.56-0.71c-0.37-0.48-0.73-0.96-1.08-1.44c-0.17-0.24-0.34-0.47-0.51-0.71
			C57.76,139.12,57.48,138.71,57.2,138.29c0.12,0.18,0.22,0.37,0.34,0.55C57.43,138.66,57.32,138.47,57.2,138.29z"/>
		<path id="XMLID_00000114066684597300655700000007977706581788126652_" class="st1" d="M134.37,65.17
			c0.25,0.18,0.49,0.37,0.74,0.56C134.87,65.55,134.62,65.36,134.37,65.17z"/>
		<path id="XMLID_00000152960097946573826210000014257915779332431768_" class="st1" d="M131.83,63.4c0.24,0.16,0.49,0.32,0.73,0.48
			C132.31,63.73,132.07,63.56,131.83,63.4z"/>
		<path id="XMLID_00000129920947473318017260000017490671775988754102_" class="st1" d="M126.47,60.32
			c0.22,0.11,0.44,0.22,0.65,0.33C126.9,60.54,126.68,60.43,126.47,60.32z"/>
		<path id="XMLID_00000127761228537138038760000016304796240388629144_" class="st1" d="M129.19,61.79c0.23,0.13,0.47,0.27,0.7,0.41
			C129.65,62.06,129.42,61.92,129.19,61.79z"/>
		<path id="XMLID_00000096769895909840275170000009566064145660297877_" class="st1" d="M136.82,67.09
			c0.25,0.21,0.49,0.42,0.74,0.63C137.31,67.51,137.07,67.3,136.82,67.09z"/>
		<path id="XMLID_00000160903389274675546680000003841206837560596385_" class="st1" d="M139.15,69.14
			c0.25,0.23,0.49,0.48,0.74,0.71C139.65,69.62,139.4,69.37,139.15,69.14z"/>
		<path id="XMLID_00000127010321568536013420000003519977735415248831_" class="st1" d="M52.72,87.29
			c-0.06,0.14-0.12,0.28-0.18,0.42C52.6,87.56,52.66,87.43,52.72,87.29z"/>
		<path id="XMLID_00000153675602934698996440000017894004305936317337_" class="st1" d="M141.37,71.33c0.25,0.26,0.49,0.53,0.73,0.8
			C141.85,71.86,141.62,71.59,141.37,71.33z"/>
		<path id="XMLID_00000119100223867873631650000006921880693780196484_" class="st1" d="M125.86,21.49
			c-2.67-2.29-5.78-4.15-9.31-5.59c-3.53-1.43-7.45-2.15-11.75-2.15c-5.35,0-10.07,1.03-14.18,3.08c-4.1,2.05-7.69,4.85-10.74,8.38
			c-3.06,3.53-5.61,7.59-7.66,12.18c-2.05,4.58-3.72,9.38-5.01,14.4c-1.29,5.01-2.22,10.1-2.79,15.25c-0.13,1.16-0.23,2.3-0.34,3.44
			c1.2-1.2,2.47-2.35,3.8-3.45c0.05-0.04,0.1-0.08,0.15-0.12c0.57-0.47,1.15-0.92,1.74-1.37c0.19-0.15,0.39-0.29,0.59-0.43
			c0.44-0.32,0.89-0.64,1.34-0.96c0.32-0.22,0.64-0.43,0.96-0.65c0.34-0.22,0.67-0.44,1.02-0.65c0.42-0.26,0.84-0.52,1.27-0.77
			c0.13-0.08,0.25-0.16,0.38-0.23c0.12-0.07,0.25-0.14,0.37-0.2c0.1-0.05,0.19-0.11,0.29-0.17l-0.01-0.01
			c11.69-6.75,15.51-8.56,22.63-12.31c10.26-5.42,19.76-9.77,29.47-13.22c2.27-0.81,4.52-1.5,6.75-2.13
			c-0.6-1.54-1.36-3.07-2.29-4.59C130.76,26.36,128.54,23.78,125.86,21.49z"/>
		<path id="XMLID_00000130604394883476613300000006557943982939751302_" class="st1" d="M123.67,59.02
			c0.19,0.08,0.39,0.16,0.58,0.25C124.06,59.19,123.87,59.11,123.67,59.02z"/>
		<path id="XMLID_00000137111298766290526140000018077208517078759313_" class="st1" d="M53.73,85.07
			c-0.04,0.08-0.08,0.16-0.12,0.24C53.65,85.23,53.7,85.15,53.73,85.07z"/>
		<path id="XMLID_00000080186630943276188070000003161451589137840266_" class="st1" d="M117.99,56.94
			c0.09,0.03,0.18,0.05,0.27,0.08C118.16,56.99,118.07,56.97,117.99,56.94z"/>
		<path id="XMLID_00000097458432900061039360000008450063757092789136_" class="st1" d="M119.11,57.29
			c-0.05-0.02-0.1-0.03-0.15-0.05C119.02,57.26,119.07,57.28,119.11,57.29z"/>
		<path id="XMLID_00000121973078571019735230000017924851216691661708_" class="st1" d="M121.29,58.06
			c-0.02-0.01-0.04-0.02-0.06-0.02c-0.04-0.02-0.09-0.03-0.13-0.05c-0.09-0.03-0.18-0.06-0.27-0.09
			C120.99,57.95,121.14,58,121.29,58.06z"/>
		<path id="XMLID_00000023964026356892865110000015021339484516709042_" class="st1" d="M144.18,74.53
			c-0.18-0.22-0.34-0.44-0.52-0.66c-0.06-0.07-0.11-0.13-0.17-0.2c-0.01-0.01-0.03-0.03-0.04-0.04
			C143.7,73.93,143.94,74.23,144.18,74.53z"/>
		<path id="XMLID_00000156589964894572092770000011644245844002003120_" class="st1" d="M143.34,73.5c-0.1-0.11-0.19-0.23-0.29-0.34
			C143.15,73.27,143.24,73.39,143.34,73.5z"/>
		<path id="XMLID_00000129896465587973811840000014710021338417507229_" class="st1" d="M125.16,59.68c-0.01,0-0.01-0.01-0.02-0.01
			C125.15,59.68,125.16,59.68,125.16,59.68z"/>
		<path id="XMLID_00000026884814078491660050000017375408580477302193_" class="st1" d="M145.37,76.01
			c-0.16-0.21-0.33-0.42-0.49-0.62C145.04,75.6,145.21,75.8,145.37,76.01z"/>
		<path id="XMLID_00000087406518482635289430000010166270412902662272_" class="st3" d="M62.21,72.5c-0.5,0.56-1,1.13-1.48,1.71
			C61.21,73.63,61.7,73.06,62.21,72.5z"/>
		<path id="XMLID_00000173865345107315727100000017161496662349719692_" class="st3" d="M53.86,132.46
			c-0.13-0.27-0.26-0.55-0.39-0.83C53.6,131.91,53.73,132.19,53.86,132.46C53.86,132.46,53.86,132.46,53.86,132.46z"/>
		<path id="XMLID_00000137830772638987630640000003683234920857956499_" class="st3" d="M55.25,135.09
			c0.01,0.01,0.02,0.03,0.02,0.04c-0.49-0.88-0.96-1.77-1.41-2.67c0.01,0.02,0.02,0.04,0.03,0.06
			C54.32,133.39,54.78,134.25,55.25,135.09z"/>
		<path id="XMLID_00000140696415555670908300000010759922569021506207_" class="st3" d="M75.98,61.48L75.98,61.48
			c-0.1,0.05-0.2,0.1-0.29,0.16C75.79,61.59,75.89,61.54,75.98,61.48z"/>
		<path id="XMLID_00000170257202824400975720000012368378899020299162_" class="st3" d="M55.86,136.14
			c0.01,0.01,0.01,0.02,0.02,0.03c-0.21-0.34-0.41-0.69-0.61-1.04c0,0,0,0.01,0.01,0.01C55.47,135.48,55.67,135.81,55.86,136.14z"/>
		<path id="XMLID_00000109021023579566186960000013552763731267495331_" class="st3" d="M50.85,124.98
			c0.01,0.04,0.03,0.07,0.04,0.11c-0.13-0.41-0.25-0.83-0.37-1.24c0,0.01,0.01,0.03,0.01,0.04
			C50.64,124.26,50.74,124.62,50.85,124.98z"/>
		<path id="XMLID_00000017489168895853050420000012695783354204041137_" class="st3" d="M53.27,131.19
			c0.07,0.15,0.14,0.29,0.21,0.44c-0.05-0.1-0.09-0.2-0.14-0.3c-0.32-0.7-0.63-1.41-0.93-2.12c0.02,0.06,0.05,0.12,0.07,0.17
			C52.73,129.99,52.99,130.59,53.27,131.19z"/>
		<path id="XMLID_00000037676267729064178100000005469291002441471633_" class="st3" d="M57.2,138.29c0.12,0.18,0.22,0.37,0.34,0.55
			C57.43,138.66,57.33,138.47,57.2,138.29c-0.45-0.69-0.89-1.4-1.32-2.12c0.01,0.02,0.02,0.03,0.03,0.05
			C56.33,136.91,56.76,137.61,57.2,138.29z"/>
		<path id="XMLID_00000085226629437337660310000009150280249687816846_" class="st3" d="M50.52,123.85
			c-0.24-0.82-0.44-1.67-0.64-2.51c0.17,0.72,0.33,1.44,0.54,2.14C50.45,123.61,50.49,123.73,50.52,123.85z"/>
		<path id="XMLID_00000127757523346283302770000002646463846151620275_" class="st3" d="M51.87,127.88
			c0.02,0.04,0.03,0.08,0.05,0.12c-0.37-0.96-0.71-1.93-1.02-2.91c0.01,0.04,0.03,0.09,0.04,0.13
			C51.22,126.12,51.53,127,51.87,127.88z"/>
		<path id="XMLID_00000170270768048352579220000012058810634562870459_" class="st3" d="M52.4,129.2c0,0,0,0.01,0.01,0.01
			c-0.17-0.4-0.33-0.8-0.49-1.21c0,0.01,0.01,0.02,0.01,0.03C52.08,128.42,52.24,128.81,52.4,129.2z"/>
		<path id="XMLID_00000032630224073785160040000013808558305831270060_" class="st3" d="M69.77,65.56
			c-0.49,0.37-0.98,0.75-1.45,1.14C68.8,66.31,69.28,65.93,69.77,65.56z"/>
		<path id="XMLID_00000013906293043514118020000010196576718307935929_" class="st3" d="M58.72,76.79
			c-0.29,0.39-0.57,0.79-0.84,1.19C58.16,77.58,58.44,77.19,58.72,76.79z"/>
		<path id="XMLID_00000082352498040620747840000005682347686056486317_" class="st3" d="M57.35,78.76c-0.3,0.46-0.6,0.92-0.89,1.39
			C56.75,79.68,57.05,79.22,57.35,78.76z"/>
		<path id="XMLID_00000157993223582348473570000014611963500069132678_" class="st3" d="M60.33,74.71
			c-0.36,0.44-0.71,0.88-1.05,1.33C59.62,75.6,59.97,75.15,60.33,74.71z"/>
		<path id="XMLID_00000148634970664399536450000006578341990477679514_" class="st3" d="M67.92,67.02
			c-0.59,0.49-1.16,0.99-1.73,1.49C66.76,68,67.34,67.5,67.92,67.02z"/>
		<path id="XMLID_00000153695066574479720940000007486983723126535057_" class="st3" d="M65.6,69.06c-0.38,0.35-0.76,0.71-1.12,1.07
			C64.85,69.77,65.22,69.42,65.6,69.06z"/>
		<path id="XMLID_00000119803741190342120320000015701566968290707131_" class="st3" d="M49.57,120.1c0.09,0.42,0.21,0.83,0.31,1.24
			C49.78,120.93,49.66,120.52,49.57,120.1z"/>
		<path id="XMLID_00000168080246527967275800000013086677228528592523_" class="st3" d="M56.08,80.74
			c-0.39,0.64-0.76,1.29-1.12,1.95C55.32,82.04,55.7,81.39,56.08,80.74z"/>
		<path id="XMLID_00000049916909906842544080000006673602162246997123_" class="st3" d="M48.9,116.44c0,0.03,0.01,0.06,0.02,0.09
			C48.91,116.5,48.9,116.47,48.9,116.44z"/>
		<path id="XMLID_00000055678474720641201580000018099026386822671489_" class="st3" d="M48.91,116.53c0.18,1.2,0.4,2.4,0.66,3.58
			C49.31,118.92,49.09,117.73,48.91,116.53z"/>
		<path id="XMLID_00000085963929641837576820000017436448214876672403_" class="st3" d="M54.55,83.47
			c-0.23,0.44-0.46,0.88-0.68,1.33C54.09,84.36,54.32,83.91,54.55,83.47z"/>
		<path id="XMLID_00000181058085188648590370000013838402769872608688_" class="st3" d="M71.72,64.15c-0.43,0.3-0.85,0.6-1.27,0.9
			C70.87,64.75,71.3,64.45,71.72,64.15z"/>
		<path id="XMLID_00000031182735578615824390000005037558418020140450_" class="st3" d="M141.37,71.33
			c-0.02-0.02-0.05-0.05-0.07-0.07c0.34,0.35,0.66,0.71,0.99,1.07c-0.06-0.07-0.12-0.14-0.18-0.21
			C141.86,71.86,141.62,71.59,141.37,71.33z"/>
		<path id="XMLID_00000179633184669673544400000009952701283456982166_" class="st3" d="M136.82,67.09
			c-0.05-0.04-0.1-0.08-0.15-0.12c0.39,0.32,0.77,0.65,1.14,0.98c-0.08-0.07-0.17-0.15-0.25-0.22
			C137.31,67.51,137.07,67.3,136.82,67.09z"/>
		<path id="XMLID_00000074423113310385284720000005034137127794964396_" class="st3" d="M139.15,69.14
			c-0.04-0.03-0.07-0.06-0.11-0.1c0.36,0.34,0.71,0.68,1.07,1.03c-0.07-0.07-0.15-0.15-0.22-0.22
			C139.65,69.62,139.4,69.37,139.15,69.14z"/>
		<path id="XMLID_00000163066885941118992600000006029868451838504613_" class="st3" d="M129.19,61.79
			c-0.12-0.07-0.24-0.13-0.36-0.2c0.46,0.26,0.92,0.53,1.37,0.8c-0.1-0.06-0.21-0.13-0.31-0.19
			C129.65,62.06,129.42,61.92,129.19,61.79z"/>
		<path id="XMLID_00000109733059470043950320000018115940794669435034_" class="st3" d="M134.37,65.17
			c-0.07-0.05-0.14-0.1-0.21-0.15c0.41,0.3,0.82,0.61,1.22,0.92c-0.09-0.07-0.18-0.15-0.27-0.22
			C134.87,65.55,134.62,65.36,134.37,65.17z"/>
		<path id="XMLID_00000102539410562792464310000013511045081787927687_" class="st3" d="M131.83,63.4
			c-0.09-0.06-0.19-0.11-0.28-0.17c0.44,0.28,0.87,0.57,1.3,0.86c-0.1-0.07-0.19-0.14-0.29-0.21
			C132.31,63.73,132.07,63.56,131.83,63.4z"/>
		<path id="XMLID_00000001637077844352909000000000019646214839256254_" class="st3" d="M143.46,73.64
			c-0.01-0.02-0.03-0.03-0.04-0.05c0.31,0.36,0.61,0.74,0.91,1.11c-0.05-0.06-0.09-0.11-0.14-0.17
			C143.94,74.23,143.7,73.93,143.46,73.64z"/>
		<path id="XMLID_00000041281817474612414800000014394061022291522460_" class="st3" d="M119.11,57.29
			c0.21,0.07,0.42,0.14,0.63,0.21c-0.39-0.13-0.78-0.27-1.18-0.39c0.13,0.04,0.26,0.09,0.4,0.13
			C119.02,57.26,119.07,57.28,119.11,57.29z"/>
		<path id="XMLID_00000113341838293113153970000016058602650028790433_" class="st3" d="M125.16,59.68
			c0.17,0.08,0.34,0.16,0.51,0.24c-0.28-0.14-0.57-0.27-0.85-0.41c0.11,0.05,0.21,0.1,0.32,0.15
			C125.15,59.68,125.16,59.68,125.16,59.68z"/>
		<path id="XMLID_00000018211470636276415300000010303424150488106644_" class="st3" d="M143.34,73.5c0.03,0.03,0.05,0.06,0.08,0.1
			c-0.14-0.17-0.28-0.34-0.43-0.5c0.02,0.02,0.04,0.05,0.06,0.07C143.15,73.27,143.24,73.39,143.34,73.5z"/>
		<path id="XMLID_00000142863568046835414650000002996576417138295949_" class="st3" d="M145.37,76.01
			c0.01,0.01,0.01,0.02,0.02,0.03c-0.19-0.24-0.38-0.48-0.57-0.72c0.02,0.02,0.04,0.05,0.06,0.07
			C145.04,75.6,145.21,75.8,145.37,76.01z"/>
		<path id="XMLID_00000183217620761319060630000015269532498193035911_" class="st3" d="M51.64,89.99c0.24-0.66,0.5-1.31,0.77-1.96
			c0.04-0.11,0.09-0.22,0.13-0.33c0.06-0.14,0.12-0.28,0.18-0.42c0.11-0.27,0.23-0.53,0.35-0.79c0.05-0.12,0.1-0.23,0.15-0.35
			c0.13-0.28,0.26-0.56,0.39-0.84c0.04-0.08,0.08-0.16,0.12-0.24c2.58-5.34,6.04-10.29,10.34-14.59c0.1-1.14,0.21-2.27,0.34-3.44
			c0.57-5.16,1.5-10.24,2.79-15.25c1.29-5.01,2.96-9.81,5.01-14.4c2.06-4.58,4.61-8.64,7.66-12.18c3.06-3.53,6.64-6.33,10.74-8.38
			c4.11-2.05,8.83-3.08,14.18-3.08c4.3,0,8.21,0.72,11.75,2.15c3.53,1.43,6.64,3.29,9.31,5.59c2.68,2.29,4.9,4.87,6.66,7.73
			c0.94,1.52,1.69,3.04,2.29,4.59c5.27-1.48,10.37-2.42,15.15-2.8c-0.8-2.45-1.81-4.86-3.04-7.23c-2.39-4.58-5.56-8.62-9.53-12.1
			c-3.96-3.49-8.71-6.3-14.25-8.45C117.61,1.07,111.3,0,104.23,0c-8.6,0-16.4,1.77-23.42,5.3c-7.02,3.53-12.99,8.93-17.91,16.19
			c-1.45,2.14-2.77,4.54-4,7.11c-2.06,4.33-3.79,9.22-5.14,14.52c-0.57,2.23-1.09,4.51-1.52,6.87c-1.86,10.13-2.85,20.53-3.29,32.13
			c-0.3,8.04-0.65,12.25-0.65,25.75h0.02c0,0.25-0.02,0.5-0.02,0.75c0,2.66,0.21,5.26,0.59,7.81c-0.37-2.54-0.57-5.14-0.57-7.79
			c0-7.36,1.48-14.38,4.15-20.77c-0.02,0.05-0.05,0.11-0.07,0.16C52.14,88.68,51.88,89.33,51.64,89.99z"/>
		<path id="XMLID_00000120533053429500394380000009502362029109680023_" class="st3" d="M68.03,66.9c-0.05,0.04-0.1,0.08-0.15,0.12
			C67.93,66.98,67.98,66.94,68.03,66.9z"/>
		<path id="XMLID_00000051357665735461235410000007770926644232845721_" class="st3" d="M53.07,86.5c-0.08,0.18-0.15,0.36-0.23,0.53
			c0.2-0.45,0.4-0.9,0.61-1.34c-0.07,0.15-0.15,0.31-0.22,0.46C53.17,86.26,53.12,86.38,53.07,86.5z"/>
		<path id="XMLID_00000070115043876299161820000007010703187801550744_" class="st3" d="M74.94,62.07
			c-0.43,0.25-0.85,0.51-1.27,0.77C74.09,62.58,74.51,62.33,74.94,62.07z"/>
		<path id="XMLID_00000050651816215535433040000012182153748031285661_" class="st3" d="M72.66,63.5c-0.32,0.21-0.65,0.43-0.96,0.65
			C72.01,63.92,72.33,63.71,72.66,63.5z"/>
		<path id="XMLID_00000133529968829540921300000018152031760044627111_" class="st3" d="M70.35,65.1c-0.2,0.14-0.39,0.29-0.59,0.43
			C69.96,65.39,70.16,65.24,70.35,65.1z"/>
		<path id="XMLID_00000108289594766451220330000000582145764954610841_" class="st3" d="M62.77,71.9c0.35-0.38,0.7-0.75,1.06-1.12
			C63.47,71.15,63.12,71.52,62.77,71.9z"/>
		<path id="XMLID_00000109728722604882979390000012506950668944459405_" class="st3" d="M126.47,60.32
			c-0.15-0.08-0.31-0.15-0.47-0.22c0.49,0.24,0.97,0.48,1.45,0.73c-0.11-0.06-0.21-0.12-0.32-0.18
			C126.9,60.54,126.68,60.43,126.47,60.32z"/>
		<path id="XMLID_00000164478070711729821660000010196151715465355907_" class="st3" d="M120.83,57.9c-0.26-0.1-0.53-0.18-0.8-0.27
			c0.54,0.19,1.07,0.37,1.6,0.58c-0.12-0.04-0.23-0.1-0.34-0.14C121.14,58,120.99,57.95,120.83,57.9z"/>
		<path id="XMLID_00000091011974446267984230000009070499117904763049_" class="st3" d="M123.67,59.02
			c-0.2-0.09-0.41-0.16-0.61-0.25c0.51,0.21,1.02,0.43,1.52,0.65c-0.11-0.05-0.22-0.11-0.34-0.16
			C124.06,59.19,123.87,59.11,123.67,59.02z"/>
		<path id="XMLID_00000056424317964548084180000016376815434036819365_" class="st3" d="M117.99,56.94
			c-0.35-0.11-0.72-0.19-1.07-0.29c0.57,0.16,1.13,0.31,1.69,0.49c-0.12-0.04-0.23-0.08-0.35-0.12
			C118.16,56.99,118.07,56.97,117.99,56.94z"/>
		<path id="XMLID_00000094611824422953035830000006633995718599832502_" class="st3" d="M73.94,62.7c-0.51,0.31-1.01,0.64-1.51,0.97
			C72.93,63.34,73.43,63.02,73.94,62.7z"/>
		<path id="XMLID_00000057829274068626223380000002885191290414401926_" class="st3" d="M109.04,55.05
			c-0.73-0.09-1.46-0.15-2.2-0.21C107.57,54.9,108.31,54.96,109.04,55.05z"/>
		<path id="XMLID_00000018212859579306088930000005165013191609929126_" class="st3" d="M102.34,54.63c-0.85,0-1.69,0.03-2.53,0.06
			C100.65,54.66,101.49,54.63,102.34,54.63z"/>
		<path id="XMLID_00000133516205556439644100000015369176191969544377_" class="st3" d="M105.71,54.74
			c-1.12-0.07-2.24-0.11-3.38-0.11C103.47,54.63,104.6,54.67,105.71,54.74z"/>
		<path id="XMLID_00000021108976003349412910000002902184897836144783_" class="st3" d="M99.04,54.74
			c-0.59,0.04-1.19,0.08-1.78,0.13C97.86,54.82,98.45,54.78,99.04,54.74z"/>
		<path id="XMLID_00000183951731089719184910000006539232818447739580_" class="st3" d="M91.02,55.83
			c-0.62,0.13-1.23,0.27-1.84,0.43C89.79,56.1,90.4,55.96,91.02,55.83z"/>
		<path id="XMLID_00000036229762427261826020000000655274959173572753_" class="st3" d="M96.44,54.96
			c-0.63,0.07-1.25,0.15-1.87,0.24C95.19,55.11,95.82,55.03,96.44,54.96z"/>
		<path id="XMLID_00000105421952800924518280000009721802630971180214_" class="st3" d="M93.97,55.28
			c-0.81,0.13-1.61,0.27-2.41,0.43C92.36,55.55,93.16,55.41,93.97,55.28z"/>
		<path id="XMLID_00000094613106941504939720000012201293069358609567_" class="st3" d="M147.11,78.43c-0.54-0.8-1.12-1.59-1.7-2.36
			c-0.01-0.01-0.01-0.01-0.02-0.02C145.98,76.83,146.56,77.62,147.11,78.43z"/>
		<path id="XMLID_00000029740045469703828710000001090127097204656565_" class="st3" d="M127.66,60.93c0.2,0.1,0.39,0.2,0.59,0.31
			C128.05,61.13,127.85,61.03,127.66,60.93z"/>
		<path id="XMLID_00000080164812298022944780000000491401802440457600_" class="st3" d="M112.3,55.56
			c-0.64-0.12-1.28-0.21-1.93-0.31C111.01,55.35,111.66,55.44,112.3,55.56z"/>
		<path id="XMLID_00000031915320523642694620000004864064471057076099_" class="st3" d="M121.37,58.09c0.35,0.13,0.71,0.26,1.05,0.4
			C122.08,58.35,121.73,58.22,121.37,58.09z"/>
		<path id="XMLID_00000049214193478710372650000016914338569854072749_" class="st3" d="M133.49,64.51c0.05,0.04,0.1,0.07,0.15,0.11
			C133.59,64.58,133.54,64.55,133.49,64.51z"/>
		<path id="XMLID_00000129889577425235509050000010208448167247211652_" class="st3" d="M115.49,56.26
			c-0.59-0.15-1.19-0.27-1.79-0.4C114.3,55.98,114.9,56.11,115.49,56.26z"/>
		<path id="XMLID_00000031183309143237518830000002968387333061593003_" class="st3" d="M138.58,68.59
			c0.04,0.04,0.08,0.07,0.12,0.11C138.65,68.66,138.62,68.63,138.58,68.59z"/>
		<path id="XMLID_00000044151175711502877550000012900079387207667381_" class="st3" d="M88.39,56.46c-0.55,0.15-1.09,0.3-1.63,0.46
			C87.3,56.76,87.84,56.61,88.39,56.46z"/>
		<path id="XMLID_00000088126853616139390140000006884348308259546807_" class="st3" d="M130.8,62.73c0.08,0.05,0.16,0.1,0.24,0.15
			C130.97,62.83,130.89,62.78,130.8,62.73z"/>
		<path id="XMLID_00000016040830394072877960000000501995236564638398_" class="st3" d="M78.57,60.14
			c-0.51,0.25-1.01,0.51-1.51,0.77C77.56,60.65,78.06,60.39,78.57,60.14z"/>
		<path id="XMLID_00000106830273073205811870000012566206490907988380_" class="st3" d="M80.84,59.09
			c-0.51,0.22-1.01,0.45-1.51,0.68C79.82,59.54,80.33,59.31,80.84,59.09z"/>
		<path id="XMLID_00000128482361407227990400000013813286028524497035_" class="st3" d="M86.01,57.15c-0.69,0.22-1.38,0.45-2.06,0.7
			C84.64,57.6,85.32,57.37,86.01,57.15z"/>
		<path id="XMLID_00000142138275004738928510000004775649012908617125_" class="st3" d="M83.74,57.92
			c-0.74,0.27-1.48,0.57-2.21,0.87C82.26,58.49,82.99,58.2,83.74,57.92z"/>
		<path id="XMLID_00000134962260106048168200000009682989404060142228_" class="st3" d="M76.44,61.24
			c-0.68,0.37-1.35,0.76-2.02,1.16C75.08,62,75.76,61.61,76.44,61.24z"/>
		<path id="XMLID_00000046338420683493003390000003990999707139192998_" class="st4" d="M143.49,73.68c0.06,0.07,0.11,0.13,0.17,0.2
			C143.61,73.81,143.55,73.75,143.49,73.68z"/>
		<path id="XMLID_00000171705325047685614090000006295910010061673146_" class="st4" d="M121.1,57.99c0.04,0.02,0.09,0.03,0.13,0.05
			C121.19,58.02,121.15,58,121.1,57.99z"/>
		<path id="XMLID_00000050643226362864580230000004599941574488213143_" class="st4" d="M121.64,58.2c0.48,0.18,0.95,0.38,1.42,0.58
			c0.2,0.08,0.41,0.16,0.61,0.25c0.19,0.08,0.39,0.16,0.58,0.25c0.11,0.05,0.22,0.11,0.34,0.16c0.47,0.21,0.94,0.44,1.41,0.67
			c0.16,0.08,0.32,0.15,0.47,0.22c0.22,0.11,0.44,0.22,0.65,0.33c0.11,0.06,0.22,0.12,0.32,0.18c0.47,0.25,0.93,0.5,1.38,0.76
			c0.12,0.07,0.24,0.13,0.36,0.2c0.23,0.13,0.47,0.27,0.7,0.41c0.11,0.06,0.21,0.13,0.31,0.19c0.46,0.27,0.91,0.56,1.35,0.84
			c0.09,0.06,0.19,0.11,0.28,0.17c0.24,0.16,0.49,0.32,0.73,0.48c0.1,0.07,0.19,0.14,0.29,0.21c0.44,0.3,0.88,0.61,1.32,0.93
			c0.07,0.05,0.14,0.1,0.21,0.15c0.25,0.18,0.49,0.37,0.74,0.56c0.09,0.07,0.18,0.15,0.27,0.22c0.43,0.33,0.86,0.67,1.28,1.02
			c0.05,0.04,0.1,0.08,0.15,0.12c0.25,0.21,0.49,0.42,0.74,0.63c0.08,0.07,0.17,0.15,0.25,0.22c0.42,0.36,0.83,0.73,1.23,1.1
			c0.04,0.03,0.07,0.06,0.11,0.1c0.25,0.23,0.49,0.48,0.74,0.71c0.07,0.07,0.15,0.15,0.22,0.22c0.4,0.39,0.8,0.78,1.18,1.18
			c0.02,0.02,0.05,0.05,0.07,0.07c0.25,0.26,0.49,0.53,0.73,0.8c0.06,0.07,0.12,0.14,0.18,0.21c0.38,0.42,0.76,0.83,1.13,1.26
			c0.01,0.02,0.03,0.03,0.04,0.05c0.01,0.01,0.03,0.03,0.04,0.04c-0.02-0.03-0.05-0.06-0.07-0.09c-0.03-0.03-0.05-0.06-0.08-0.1
			c-0.1-0.11-0.19-0.23-0.29-0.34c-0.02-0.02-0.04-0.05-0.06-0.07c-1.36-1.56-2.79-3.02-4.3-4.39c-0.04-0.04-0.08-0.07-0.12-0.11
			c-1.57-1.43-3.22-2.75-4.93-3.97c-0.05-0.04-0.1-0.07-0.15-0.11c-0.8-0.57-1.62-1.11-2.45-1.63c-0.08-0.05-0.16-0.1-0.24-0.15
			c-0.84-0.52-1.69-1.02-2.56-1.49c-0.19-0.11-0.39-0.21-0.59-0.31c-0.65-0.35-1.31-0.68-1.98-1c-0.17-0.08-0.34-0.16-0.51-0.24
			c-0.01,0-0.01-0.01-0.02-0.01c-0.11-0.05-0.21-0.1-0.32-0.15c-0.79-0.36-1.59-0.71-2.4-1.03c-0.35-0.14-0.7-0.27-1.05-0.4
			c-0.05-0.02-0.09-0.04-0.14-0.05c0.02,0.01,0.04,0.02,0.06,0.02C121.41,58.1,121.52,58.16,121.64,58.2z"/>
		<path id="XMLID_00000085950675342931329420000016620450985627574164_" class="st4" d="M53.22,86.15c-0.05,0.12-0.1,0.23-0.15,0.35
			C53.12,86.38,53.17,86.26,53.22,86.15z"/>
		<path id="XMLID_00000099657737845450096250000004261391912751988110_" class="st4" d="M144.32,74.7c0.36,0.45,0.73,0.89,1.07,1.35
			c0.01,0.01,0.01,0.01,0.02,0.02c0.03,0.04,0.07,0.08,0.1,0.12c-0.04-0.05-0.08-0.1-0.12-0.15c-0.01-0.01-0.01-0.02-0.02-0.03
			c-0.16-0.21-0.33-0.42-0.49-0.62c-0.02-0.02-0.04-0.05-0.06-0.07c-0.38-0.49-0.77-0.97-1.16-1.44c0.18,0.21,0.35,0.44,0.52,0.66
			C144.23,74.59,144.27,74.65,144.32,74.7z"/>
		<path id="XMLID_00000063632243706676049750000015492459019684310451_" class="st4" d="M52.4,88.03c-0.27,0.65-0.52,1.3-0.77,1.96
			C51.88,89.33,52.14,88.68,52.4,88.03z"/>
		<path id="XMLID_00000075148359926313071630000006652768870665787536_" class="st4" d="M52.72,87.29
			c-0.06,0.14-0.12,0.28-0.18,0.42c-0.05,0.11-0.09,0.22-0.13,0.33c0.02-0.05,0.05-0.11,0.07-0.16c0.12-0.28,0.24-0.56,0.37-0.84
			c0.08-0.18,0.15-0.36,0.23-0.53C52.95,86.76,52.83,87.02,52.72,87.29z"/>
		<path id="XMLID_00000102541031038097531830000003750979450147153050_" class="st4" d="M53.61,85.31
			c-0.13,0.28-0.26,0.56-0.39,0.84c0.07-0.16,0.15-0.31,0.22-0.46c0.12-0.26,0.24-0.51,0.37-0.77c-0.02,0.05-0.06,0.1-0.08,0.15
			C53.7,85.15,53.65,85.23,53.61,85.31z"/>
		<path id="XMLID_00000096024042872719420220000006320886384767083704_" class="st4" d="M56.46,80.15c-0.12,0.2-0.25,0.4-0.38,0.6
			c-0.02,0.03-0.04,0.06-0.05,0.09c0.55-0.93,1.15-1.83,1.76-2.72c-0.15,0.21-0.29,0.43-0.44,0.64
			C57.05,79.22,56.75,79.68,56.46,80.15z"/>
		<path id="XMLID_00000163071740188299387750000009843987986923730105_" class="st4" d="M58.91,76.54c0.4-0.54,0.81-1.07,1.23-1.6
			c-0.29,0.37-0.59,0.73-0.87,1.11C59.15,76.21,59.03,76.37,58.91,76.54z"/>
		<path id="XMLID_00000003799683715301671700000003507488435602710716_" class="st4" d="M62.21,72.5c-0.07,0.08-0.14,0.17-0.22,0.25
			c0.3-0.33,0.6-0.66,0.91-0.99c-0.04,0.05-0.09,0.09-0.13,0.13C62.58,72.1,62.39,72.3,62.21,72.5z"/>
		<path id="XMLID_00000127039853027611588530000016416125171931229062_" class="st4" d="M54.55,83.47
			c-0.23,0.44-0.46,0.88-0.68,1.33c-0.02,0.04-0.04,0.07-0.05,0.11c0.54-1.1,1.12-2.18,1.73-3.24c-0.2,0.34-0.4,0.68-0.59,1.02
			C54.82,82.95,54.69,83.21,54.55,83.47z"/>
		<path id="XMLID_00000062906509799339130160000004126623928465929353_" class="st4" d="M203.82,90.52
			c1.04-5.18,1.1-10.7,0.19-16.57c-0.91-5.87-3.13-11.87-6.66-17.99c-4.3-7.44-9.73-13.32-16.3-17.63
			c-6.57-4.31-14.23-6.78-22.97-7.41c-2.57-0.18-5.29-0.14-8.12,0.09c-4.78,0.38-9.88,1.33-15.15,2.8
			c-2.23,0.62-4.48,1.32-6.75,2.13c-9.7,3.45-19.2,7.8-29.47,13.22c-7.11,3.76-10.94,5.56-22.63,12.31l0.01,0.01l0,0.01
			c-0.1,0.05-0.19,0.11-0.29,0.16c-0.12,0.07-0.25,0.13-0.37,0.2c-0.13,0.07-0.25,0.16-0.38,0.23c-0.43,0.25-0.85,0.51-1.27,0.77
			c-0.34,0.21-0.68,0.43-1.02,0.65c-0.32,0.21-0.65,0.43-0.96,0.65c-0.45,0.31-0.9,0.63-1.34,0.96c-0.2,0.14-0.39,0.29-0.59,0.43
			c-0.59,0.45-1.17,0.9-1.74,1.37c-0.05,0.04-0.1,0.08-0.15,0.12c-1.33,1.1-2.6,2.25-3.8,3.45c-0.41,0.41-0.78,0.86-1.18,1.29
			c0.31-0.33,0.62-0.66,0.94-0.98c0.21-0.22,0.43-0.43,0.64-0.64c0.37-0.36,0.74-0.72,1.12-1.07c0.2-0.18,0.39-0.37,0.59-0.55
			c0.57-0.51,1.14-1.01,1.73-1.49c0.13-0.11,0.26-0.21,0.4-0.32c0.48-0.39,0.96-0.77,1.45-1.14c0.23-0.17,0.45-0.34,0.68-0.5
			c0.42-0.31,0.84-0.61,1.27-0.9c0.23-0.16,0.47-0.32,0.71-0.48c0.5-0.33,1-0.65,1.51-0.97c0.16-0.1,0.32-0.21,0.48-0.3
			c0.66-0.4,1.34-0.79,2.02-1.16c0.2-0.11,0.41-0.22,0.62-0.33c0.5-0.27,1-0.52,1.51-0.77c0.25-0.12,0.5-0.24,0.75-0.36
			c0.5-0.24,1.01-0.46,1.51-0.68c0.23-0.1,0.46-0.2,0.69-0.3c0.73-0.3,1.46-0.6,2.21-0.87c0.07-0.03,0.15-0.05,0.22-0.08
			c0.68-0.25,1.37-0.48,2.06-0.7c0.25-0.08,0.5-0.15,0.75-0.23c0.54-0.16,1.08-0.32,1.63-0.46c0.26-0.07,0.52-0.14,0.79-0.21
			c0.61-0.15,1.22-0.29,1.84-0.43c0.18-0.04,0.36-0.08,0.55-0.12c0.8-0.16,1.6-0.3,2.41-0.43c0.2-0.03,0.4-0.05,0.6-0.08
			c0.62-0.09,1.24-0.17,1.87-0.24c0.27-0.03,0.55-0.06,0.83-0.08c0.59-0.05,1.18-0.1,1.78-0.13c0.26-0.02,0.51-0.03,0.77-0.05
			c0.84-0.04,1.68-0.06,2.53-0.06c1.13,0,2.26,0.04,3.38,0.11c0.38,0.02,0.75,0.07,1.13,0.1c0.74,0.06,1.47,0.12,2.2,0.21
			c0.45,0.06,0.88,0.13,1.33,0.2c0.65,0.1,1.29,0.19,1.93,0.31c0.47,0.09,0.94,0.2,1.4,0.3c0.6,0.13,1.2,0.25,1.79,0.4
			c0.48,0.12,0.95,0.26,1.43,0.39c0.36,0.1,0.72,0.19,1.07,0.29c0.09,0.03,0.18,0.05,0.27,0.08c0.12,0.04,0.23,0.08,0.35,0.12
			c0.48,0.15,0.96,0.32,1.43,0.49c0.27,0.09,0.54,0.17,0.8,0.27c0.09,0.03,0.18,0.06,0.27,0.09c-0.45-0.17-0.9-0.33-1.36-0.48
			c-0.21-0.07-0.42-0.14-0.63-0.21c-0.05-0.02-0.1-0.03-0.15-0.05c-0.13-0.04-0.26-0.09-0.4-0.13c-0.78-0.24-1.56-0.48-2.34-0.69
			c1.04-0.48,2.08-0.96,3.16-1.43c4.75-2.08,9.62-3.82,14.61-5.21c4.99-1.39,9.98-2.34,14.97-2.86c5-0.51,9.79-0.33,14.38,0.55
			c4.59,0.88,8.8,2.59,12.63,5.11c3.83,2.53,7.08,6.11,9.76,10.74c2.15,3.72,3.49,7.47,4.01,11.25c0.53,3.78,0.47,7.4-0.18,10.86
			c-0.65,3.46-1.77,6.67-3.37,9.64c-0.85,1.57-1.79,2.99-2.83,4.28c3.91,3.82,7.28,7.77,10,11.72c1.72-1.92,3.31-4,4.74-6.25
			C200.88,100.46,202.79,95.69,203.82,90.52z"/>
		<path id="XMLID_00000121994669801395117810000009857315366955923614_" class="st4" d="M57.88,77.98c0.28-0.4,0.56-0.8,0.84-1.19
			c0.06-0.09,0.13-0.17,0.19-0.26c-0.38,0.52-0.76,1.04-1.13,1.58C57.82,78.07,57.85,78.03,57.88,77.98z"/>
		<path id="XMLID_00000033370490217309510760000010618808140768006020_" class="st4" d="M60.33,74.71c0.14-0.17,0.27-0.34,0.4-0.51
			c0.41-0.5,0.84-0.98,1.26-1.46c-0.64,0.72-1.25,1.44-1.84,2.19C60.21,74.86,60.27,74.79,60.33,74.71z"/>
		<path id="XMLID_00000078039227232375878600000011254896948311738771_" class="st4" d="M56.03,80.84
			c-0.17,0.28-0.32,0.56-0.48,0.84C55.71,81.4,55.86,81.11,56.03,80.84z"/>
		<path id="XMLID_00000021098877608251003540000017244416865109521308_" class="st1" d="M142.94,73.05c0.1,0.11,0.19,0.22,0.29,0.34
			C143.13,73.27,143.04,73.16,142.94,73.05z"/>
		<path id="XMLID_00000133499210705773331660000007823787839496512945_" class="st1" d="M139.23,69.22c0.1,0.09,0.2,0.19,0.3,0.29
			C139.43,69.41,139.34,69.32,139.23,69.22z"/>
		<path id="XMLID_00000179609035553699887460000015406604527394598326_" class="st1" d="M141.13,71.09c0.1,0.1,0.2,0.21,0.3,0.31
			C141.33,71.3,141.23,71.19,141.13,71.09z"/>
		<path id="XMLID_00000114065520756530099500000003131808125726306439_" class="st1" d="M146.27,77.25
			c0.08,0.12,0.16,0.23,0.25,0.35C146.43,77.48,146.35,77.36,146.27,77.25z"/>
		<path id="XMLID_00000086662964436325287290000009967082156889613233_" class="st1" d="M144.65,75.1c0.09,0.12,0.18,0.23,0.27,0.35
			C144.83,75.33,144.74,75.22,144.65,75.1z"/>
		<path id="XMLID_00000169539907586096922100000008534695220503264949_" class="st1" d="M147.78,79.47
			c0.07,0.11,0.15,0.23,0.22,0.34C147.93,79.7,147.85,79.59,147.78,79.47z"/>
		<path id="XMLID_00000134956967381908537120000001351345306139619772_" class="st1" d="M130.8,62.75c0.04,0.03,0.09,0.06,0.13,0.08
			C130.89,62.8,130.85,62.78,130.8,62.75z"/>
		<path id="XMLID_00000062179140756342083090000007251796609069142965_" class="st1" d="M133.03,64.21c0.07,0.05,0.14,0.1,0.21,0.15
			C133.17,64.31,133.1,64.26,133.03,64.21z"/>
		<path id="XMLID_00000015349855663655780220000010590480596227019683_" class="st1" d="M137.25,67.45c0.1,0.08,0.19,0.17,0.29,0.25
			C137.44,67.62,137.35,67.53,137.25,67.45z"/>
		<path id="XMLID_00000152258953393836492900000015861465190513141636_" class="st1" d="M135.18,65.78c0.09,0.07,0.17,0.13,0.25,0.2
			C135.35,65.91,135.27,65.85,135.18,65.78z"/>
		<path id="XMLID_00000108269310175590145050000007673767611608135304_" class="st1" d="M156.33,109.4h0.02
			c0,13.5-0.35,17.71-0.65,25.75c-0.44,11.6-1.42,22-3.29,32.13c-0.44,2.37-0.96,4.66-1.53,6.89c1.63,0.25,3.33,0.36,5.11,0.31
			c3.36-0.1,6.71-0.73,10.03-1.9c3.32-1.17,6.49-2.93,9.49-5.27c3.01-2.34,5.59-5.38,7.73-9.1c2.67-4.63,4.15-9.24,4.42-13.82
			c0.27-4.58-0.35-9.08-1.89-13.49c-1.53-4.41-3.77-8.65-6.71-12.73c-2.94-4.07-6.26-7.92-9.96-11.54
			c-3.7-3.62-7.64-6.97-11.81-10.05c-0.94-0.69-1.88-1.35-2.81-2.01v0c1.21,4.49,1.86,9.2,1.86,14.07
			C156.35,108.9,156.33,109.14,156.33,109.4z"/>
		<circle id="XMLID_00000096045427132221416610000008979711968056725386_" class="st1" cx="102.34" cy="108.64" r="38.71"/>
		<path id="XMLID_00000101796810099282047600000002126206254342925714_" class="st1" d="M149.19,81.79
			c0.06,0.11,0.12,0.21,0.19,0.32C149.31,82,149.25,81.89,149.19,81.79z"/>
		<path id="XMLID_00000062162077146868861680000003918050755519771798_" class="st1" d="M149.8,178.06c0,0,0,0.01,0,0.01
			C149.79,178.07,149.79,178.06,149.8,178.06z"/>
		<path id="XMLID_00000016763302861632606280000004487676680154749849_" class="st1" d="M150.48,84.18c0.05,0.1,0.1,0.19,0.15,0.29
			C150.58,84.37,150.53,84.28,150.48,84.18z"/>
		<path id="XMLID_00000091712639112295444910000004768050552324298370_" class="st1" d="M151.67,86.66
			c0.04,0.08,0.07,0.16,0.11,0.25C151.74,86.82,151.7,86.74,151.67,86.66z"/>
		<path id="XMLID_00000067929443892771656960000017065459743734497426_" class="st1" d="M153.67,91.85c0.01,0.04,0.02,0.07,0.04,0.1
			C153.69,91.92,153.68,91.89,153.67,91.85z"/>
		<path id="XMLID_00000031890369162102349260000006762637605659287424_" class="st1" d="M152.73,89.21
			c0.02,0.06,0.05,0.12,0.07,0.19C152.78,89.34,152.75,89.28,152.73,89.21z"/>
		<path id="XMLID_00000061468029678202672740000000871781869632123276_" class="st5" d="M197.5,118.06
			c-1.12-2.31-2.53-4.65-4.13-6.98c-2.72-3.95-6.09-7.89-10-11.72c-1.65-1.62-3.38-3.22-5.22-4.78
			c-7.84-6.68-16.35-12.73-26.18-18.91c-6.81-4.28-10.29-6.69-21.98-13.44l-0.01,0.02c-0.22-0.13-0.42-0.27-0.64-0.39
			c-0.27-0.16-0.55-0.3-0.83-0.45c0,0,0,0,0.01,0c0.78,0.43,1.54,0.88,2.29,1.35c0.04,0.03,0.09,0.06,0.13,0.08
			c0.71,0.44,1.41,0.9,2.1,1.38c0.07,0.05,0.14,0.1,0.21,0.15c0.66,0.46,1.31,0.93,1.94,1.42c0.09,0.07,0.17,0.13,0.25,0.2
			c0.62,0.48,1.22,0.97,1.81,1.47c0.1,0.08,0.19,0.17,0.29,0.25c0.58,0.5,1.14,1,1.7,1.52c0.1,0.09,0.2,0.19,0.3,0.29
			c0.54,0.52,1.08,1.04,1.6,1.58c0.1,0.1,0.2,0.21,0.3,0.31c0.51,0.54,1.02,1.09,1.51,1.65c0.1,0.11,0.19,0.22,0.29,0.34
			c0.49,0.56,0.96,1.13,1.42,1.72c0.09,0.12,0.18,0.23,0.27,0.35c0.46,0.59,0.91,1.19,1.34,1.79c0.08,0.12,0.16,0.23,0.25,0.35
			c0.43,0.62,0.86,1.25,1.27,1.88c0.07,0.11,0.15,0.23,0.22,0.34c0.41,0.65,0.81,1.31,1.19,1.97c0.06,0.11,0.12,0.21,0.19,0.32
			c0.39,0.68,0.76,1.37,1.11,2.07c0.05,0.1,0.1,0.19,0.15,0.29c0.36,0.72,0.7,1.45,1.03,2.19c0.04,0.08,0.07,0.16,0.11,0.25
			c0.34,0.76,0.65,1.53,0.95,2.31c0.02,0.06,0.05,0.12,0.07,0.19c0.31,0.81,0.6,1.63,0.87,2.45c0.01,0.04,0.02,0.07,0.04,0.1
			c0.28,0.86,0.54,1.73,0.78,2.62v0c0.93,0.66,1.87,1.32,2.81,2.01c4.18,3.07,8.12,6.42,11.81,10.05c3.7,3.62,7.02,7.47,9.96,11.54
			c2.94,4.07,5.18,8.31,6.71,12.73c1.53,4.42,2.16,8.91,1.89,13.49c-0.27,4.58-1.75,9.19-4.42,13.82c-2.15,3.72-4.73,6.76-7.73,9.1
			c-3.01,2.34-6.17,4.1-9.49,5.27c-3.32,1.17-6.67,1.8-10.03,1.9c-1.78,0.05-3.48-0.06-5.11-0.31l0,0c-0.34,1.32-0.7,2.62-1.08,3.89
			c0,0,0,0.01,0,0.01c-1.15,3.81-2.51,7.37-4.06,10.62h0c2.52,0.53,5.1,0.86,7.77,0.98c5.16,0.23,10.25-0.51,15.25-2.2
			c5-1.69,9.82-4.4,14.45-8.12c4.63-3.72,8.71-8.64,12.25-14.76c4.3-7.44,6.67-15.09,7.12-22.93
			C203.01,133.81,201.32,125.95,197.5,118.06z"/>
		<path id="XMLID_00000096058996808886716370000018100671505628729991_" class="st1" d="M105.58,162.55
			c0.31-0.02,0.63-0.05,0.94-0.07C106.21,162.5,105.9,162.53,105.58,162.55z"/>
		<path id="XMLID_00000039103078377979444020000004395525936578387130_" class="st1" d="M108.87,162.25
			c0.31-0.04,0.63-0.08,0.94-0.12C109.5,162.17,109.18,162.21,108.87,162.25z"/>
		<path id="XMLID_00000053520042831040655660000013231620131461458821_" class="st1" d="M112.44,161.69
			c0.16-0.03,0.33-0.06,0.49-0.09C112.77,161.64,112.6,161.66,112.44,161.69z"/>
		<path id="XMLID_00000042001659355411946060000014378767131202453389_" class="st1" d="M94.77,162.12
			c0.14,0.02,0.29,0.04,0.43,0.05C95.06,162.15,94.92,162.14,94.77,162.12z"/>
		<path id="XMLID_00000028294114735328860180000015767239849301540531_" class="st1" d="M98.11,162.47c0.27,0.02,0.53,0.04,0.8,0.06
			C98.65,162.52,98.38,162.49,98.11,162.47z"/>
		<path id="XMLID_00000176760566757583381800000003230958089881497512_" class="st1" d="M116.14,160.87
			c0.04-0.01,0.08-0.02,0.13-0.04C116.23,160.84,116.19,160.85,116.14,160.87z"/>
		<circle id="XMLID_00000067943096002509937560000006076256547309777572_" class="st1" cx="102.34" cy="108.64" r="38.71"/>
		<path id="XMLID_00000101081174271882431430000009026791005217341854_" class="st1" d="M106.05,168.12
			c-10.27,5.42-19.76,9.77-29.47,13.22c-2.27,0.81-4.52,1.5-6.74,2.13c0.6,1.54,1.36,3.07,2.29,4.59c1.77,2.86,3.99,5.44,6.66,7.73
			c2.67,2.29,5.78,4.15,9.31,5.59c3.53,1.43,7.45,2.15,11.75,2.15c5.35,0,10.07-1.03,14.18-3.08c4.1-2.05,7.69-4.85,10.74-8.38
			c3.06-3.53,5.61-7.59,7.66-12.18c2.05-4.58,3.72-9.38,5.01-14.4c1.29-5.01,2.22-10.1,2.79-15.25c0.13-1.17,0.23-2.31,0.34-3.45
			c-3.52,3.53-7.53,6.56-11.91,9.01l0.01,0.01C116.99,162.55,113.17,164.36,106.05,168.12z"/>
		<path id="XMLID_00000061452718288586320480000015750421410735749268_" class="st1" d="M119.23,159.94
			c0.16-0.05,0.32-0.11,0.48-0.16C119.55,159.83,119.39,159.89,119.23,159.94z"/>
		<path id="XMLID_00000102520227023217664510000006974720165943435141_" class="st1" d="M122.44,158.77
			c0.09-0.04,0.18-0.07,0.28-0.11C122.62,158.7,122.53,158.74,122.44,158.77z"/>
		<path id="XMLID_00000025445135083381480920000013861652314790302385_" class="st0" d="M156.35,108.64c0-4.87-0.66-9.58-1.86-14.07
			c-0.24-0.88-0.5-1.75-0.78-2.62c-0.01-0.04-0.02-0.07-0.04-0.1c-0.27-0.83-0.56-1.64-0.87-2.45c-0.02-0.06-0.05-0.12-0.07-0.19
			c-0.3-0.78-0.62-1.55-0.95-2.31c-0.04-0.08-0.07-0.16-0.11-0.25c-0.33-0.74-0.67-1.47-1.03-2.19c-0.05-0.1-0.1-0.19-0.15-0.29
			c-0.36-0.7-0.73-1.39-1.11-2.07c-0.06-0.11-0.12-0.21-0.19-0.32c-0.38-0.67-0.78-1.32-1.19-1.97c-0.07-0.11-0.15-0.23-0.22-0.34
			c-0.41-0.64-0.83-1.26-1.27-1.88c-0.08-0.12-0.16-0.23-0.25-0.35c-0.44-0.61-0.88-1.21-1.34-1.79c-0.09-0.12-0.18-0.23-0.27-0.35
			c-0.46-0.58-0.94-1.15-1.42-1.72c-0.1-0.11-0.19-0.22-0.29-0.34c-0.49-0.56-0.99-1.11-1.51-1.65c-0.1-0.1-0.2-0.21-0.3-0.31
			c-0.52-0.54-1.06-1.07-1.6-1.58c-0.1-0.1-0.2-0.19-0.3-0.29c-0.56-0.52-1.12-1.03-1.7-1.52c-0.1-0.08-0.19-0.17-0.29-0.25
			c-0.59-0.5-1.2-0.99-1.81-1.47c-0.09-0.07-0.17-0.13-0.25-0.2c-0.64-0.49-1.28-0.96-1.94-1.42c-0.07-0.05-0.14-0.1-0.21-0.15
			c-0.69-0.48-1.39-0.93-2.1-1.38c-0.04-0.03-0.09-0.06-0.13-0.08c-0.75-0.47-1.52-0.92-2.29-1.35c-7.75-4.31-16.68-6.77-26.17-6.77
			c-29.83,0-54.01,24.18-54.01,54.01c0,24.79,16.71,45.67,39.48,52.02c0,0,0,0-0.01,0c2.27,0.63,4.6,1.12,6.97,1.46
			c0.14,0.02,0.29,0.04,0.43,0.05c0.96,0.13,1.93,0.23,2.91,0.3c0.27,0.02,0.53,0.04,0.8,0.06c1.13,0.07,2.27,0.12,3.42,0.12
			c1.09,0,2.17-0.04,3.25-0.11c0.31-0.02,0.63-0.05,0.94-0.07c0.79-0.06,1.57-0.14,2.35-0.23c0.31-0.04,0.63-0.08,0.94-0.12
			c0.88-0.12,1.76-0.27,2.63-0.43c0.16-0.03,0.33-0.06,0.49-0.09c1.08-0.22,2.16-0.46,3.21-0.74c0.04-0.01,0.08-0.02,0.13-0.04
			c1-0.27,1.99-0.56,2.96-0.89c0.16-0.05,0.32-0.11,0.48-0.16c0.92-0.31,1.83-0.65,2.73-1.01c0.09-0.04,0.18-0.07,0.28-0.11
			c2.05-0.84,4.04-1.8,5.96-2.87v0c4.38-2.45,8.39-5.49,11.91-9.01c-0.1,1.14-0.21,2.28-0.34,3.45c-0.57,5.16-1.5,10.24-2.79,15.25
			c-1.29,5.01-2.96,9.81-5.01,14.4c-2.06,4.58-4.61,8.64-7.66,12.18c-3.06,3.53-6.64,6.33-10.74,8.38
			c-4.11,2.05-8.83,3.08-14.18,3.08c-4.3,0-8.21-0.72-11.75-2.15c-3.53-1.43-6.64-3.29-9.31-5.59c-2.68-2.29-4.9-4.87-6.66-7.73
			c-0.94-1.51-1.69-3.04-2.29-4.59c-5.27,1.48-10.37,2.42-15.15,2.8c0.8,2.45,1.81,4.85,3.04,7.22c2.39,4.58,5.56,8.62,9.53,12.1
			c3.96,3.49,8.71,6.3,14.25,8.45c5.54,2.15,11.84,3.22,18.91,3.22c8.6,0,16.4-1.77,23.42-5.3c7.02-3.53,12.99-8.93,17.91-16.19
			c1.45-2.13,2.77-4.52,3.99-7.09h0c1.55-3.25,2.9-6.81,4.06-10.62c0,0,0-0.01,0-0.01c0.38-1.27,0.74-2.56,1.08-3.89
			c0.57-2.24,1.09-4.53,1.53-6.89c1.86-10.13,2.85-20.53,3.29-32.13c0.3-8.04,0.65-12.25,0.65-25.75h-0.02
			C156.33,109.14,156.35,108.9,156.35,108.64z M102.34,147.36c-21.38,0-38.71-17.33-38.71-38.71s17.33-38.71,38.71-38.71
			s38.71,17.33,38.71,38.71S123.72,147.36,102.34,147.36z"/>
		<path id="XMLID_00000079468701304666079590000001660453591973919384_" class="st6" d="M76.58,181.33
			c9.7-3.45,19.2-7.8,29.47-13.22c7.11-3.76,10.94-5.56,22.63-12.31l-0.01-0.01v0c-1.92,1.07-3.91,2.03-5.96,2.87
			c-0.09,0.04-0.18,0.07-0.28,0.11c-0.9,0.36-1.81,0.7-2.73,1.01c-0.16,0.05-0.32,0.11-0.48,0.16c-0.98,0.32-1.96,0.62-2.96,0.89
			c-0.04,0.01-0.08,0.02-0.13,0.04c-1.06,0.28-2.13,0.53-3.21,0.74c-0.16,0.03-0.33,0.06-0.49,0.09c-0.87,0.17-1.75,0.31-2.63,0.43
			c-0.31,0.04-0.63,0.08-0.94,0.12c-0.78,0.09-1.56,0.17-2.35,0.23c-0.31,0.02-0.62,0.05-0.94,0.07c-1.07,0.06-2.16,0.11-3.25,0.11
			c-1.15,0-2.29-0.05-3.42-0.12c-0.27-0.02-0.54-0.04-0.8-0.06c-0.98-0.08-1.95-0.17-2.91-0.3c-0.14-0.02-0.29-0.03-0.43-0.05
			c-2.38-0.34-4.7-0.82-6.97-1.46c0,0,0,0,0.01,0c0.21,0.06,0.41,0.12,0.62,0.18c-1.04,0.48-2.08,0.96-3.16,1.43
			c-4.75,2.08-9.62,3.82-14.61,5.21c-4.99,1.39-9.98,2.34-14.97,2.86c-5,0.51-9.79,0.33-14.38-0.55c-4.59-0.88-8.8-2.59-12.63-5.11
			c-3.83-2.53-7.08-6.11-9.76-10.74c-2.15-3.72-3.49-7.47-4.01-11.25c-0.53-3.78-0.47-7.4,0.18-10.86c0.65-3.46,1.77-6.67,3.37-9.64
			c0.84-1.57,1.79-2.98,2.82-4.27c-3.91-3.83-7.28-7.77-10-11.72c-1.72,1.92-3.3,3.99-4.73,6.25c-2.78,4.36-4.68,9.13-5.72,14.3
			c-1.04,5.18-1.1,10.7-0.19,16.57c0.91,5.87,3.13,11.87,6.66,17.99c4.3,7.44,9.73,13.32,16.3,17.63
			c6.57,4.31,14.22,6.78,22.97,7.41c2.57,0.18,5.29,0.14,8.12-0.09c4.78-0.38,9.88-1.33,15.15-2.8
			C72.07,182.84,74.31,182.14,76.58,181.33z"/>
	</g>
</g>
</svg>
