<?xml version="1.0" encoding="utf-8"?>
<!-- Generator: Adobe Illustrator 26.3.1, SVG Export Plug-In . SVG Version: 6.00 Build 0)  -->
<svg version="1.1" id="Layer_1" xmlns="http://www.w3.org/2000/svg" xmlns:xlink="http://www.w3.org/1999/xlink" x="0px" y="0px"
	 viewBox="0 0 1724.4 336" style="enable-background:new 0 0 1724.4 336;" xml:space="preserve">
<style type="text/css">
	.st0{fill-rule:evenodd;clip-rule:evenodd;fill:#FFFFFF;}
</style>
<path class="st0" d="M1191.2,208.6h-89.5v-82.1h88.1v18.2h-64.1v14h60.7v17.2h-60.7V190h65.5V208.6L1191.2,208.6z"/>
<path class="st0" d="M1706.2,208.6h-88.1v-80.9h86.7v17.9h-63.1v13.8h59.8v16.9h-59.8v13.9h64.5V208.6z"/>
<path class="st0" d="M1312.5,208.6h-36.2l-47.7-61.4h-0.5v61.4h-23.8v-82.1h36.8l47.1,61.5h0.5v-61.5h23.8V208.6L1312.5,208.6z"/>
<path class="st0" d="M1599.6,208.6h-36.2l-47.7-61.4h-0.5v61.4h-23.8v-82.1h36.8l47.1,61.5h0.5v-61.5h23.8V208.6L1599.6,208.6z"/>
<path class="st0" d="M1382.5,209.7c-7.6,0-14.2-0.2-19.7-0.6c-4.7-0.3-9.5-1-14.1-2.1c-3.4-0.8-6.6-2.3-9.4-4.4
	c-2.5-1.9-4.4-4.4-5.6-7.3c-1.5-3.5-2.4-7.2-2.7-10.9c-0.5-5-0.7-10.1-0.7-15.2v-2.4c0-5.1,0.2-10.2,0.7-15.3
	c0.3-3.8,1.3-7.5,2.8-11c1.2-2.9,3.2-5.4,5.6-7.3c2.8-2,6-3.5,9.4-4.3c4.6-1.1,9.3-1.8,14.1-2.1c5.5-0.4,12-0.5,19.6-0.5h3.7
	c6.3,0,11.9,0.1,16.6,0.4c4.1,0.2,8.2,0.7,12.2,1.5c2.9,0.6,5.8,1.5,8.4,2.9c2.1,1.1,3.9,2.8,5.3,4.8c1.4,2.1,2.3,4.5,2.7,6.9
	c0.5,3.1,0.8,6.3,0.8,9.4v3.2h-23.3v-1c0-1.6-0.2-3.2-0.9-4.7c-0.7-1.4-1.9-2.5-3.4-3c-2.3-0.9-4.7-1.4-7.1-1.6
	c-3.1-0.3-7.1-0.5-12.1-0.5h-2c-4.6,0-8.4,0.1-11.7,0.2c-2.7,0.1-5.4,0.4-8,1c-1.8,0.4-3.6,1.2-5.1,2.2c-1.3,1-2.3,2.4-2.8,4
	c-0.7,2-1.1,4.1-1.2,6.2c-0.2,2.5-0.3,5.4-0.3,8.9v1.5c0,3.4,0.1,6.3,0.3,8.7c0.1,2.1,0.5,4.1,1.2,6.1c0.5,1.6,1.5,3,2.8,4
	c1.5,1.1,3.3,1.9,5.1,2.2c2.6,0.6,5.3,0.9,8,1c3.2,0.2,7.1,0.2,11.7,0.2h2c3.7,0,6.9-0.1,9.6-0.2c2.3-0.1,4.5-0.3,6.8-0.6
	c1.5-0.2,3-0.6,4.4-1.2c1-0.4,1.9-1.1,2.5-2c0.6-0.8,1-1.8,1.2-2.8c0.2-1.2,0.3-2.5,0.3-3.8v-2.3h-31.4v-15.9h54.4v18.2
	c0,3.5-0.2,7-0.8,10.4c-0.4,2.7-1.4,5.3-2.8,7.7c-1.4,2.2-3.2,4-5.4,5.4c-2.7,1.6-5.6,2.7-8.6,3.4c-4.1,0.9-8.3,1.5-12.5,1.8
	c-4.8,0.3-10.5,0.5-16.9,0.5H1382.5z"/>
<path class="st0" d="M1473.9,208.8h-24.1v-81.5h24.1V208.8z"/>
<path class="st0" d="M427.2,209.6c-6.7,0-12.5-0.2-17.5-0.5c-4.4-0.3-8.7-0.9-13-1.8c-3.2-0.7-6.3-1.9-9.1-3.5
	c-2.3-1.4-4.3-3.3-5.7-5.6c-1.5-2.5-2.5-5.2-3-8c-0.6-3.6-0.9-7.2-0.9-10.8v-53.1h24.2v45.3c0,2.8,0.1,5.2,0.3,7.2
	c0.1,1.8,0.5,3.5,1.2,5.1c0.5,1.4,1.4,2.5,2.6,3.4c1.4,1,2.9,1.6,4.5,2c2.3,0.6,4.6,0.9,6.9,1c2.7,0.2,6,0.2,9.8,0.2h2
	c3.8,0,7-0.1,9.8-0.3c2.3-0.1,4.6-0.5,6.9-1c1.6-0.3,3.2-1,4.5-2c1.1-0.9,2-2.1,2.6-3.4c0.7-1.6,1.1-3.4,1.2-5.1
	c0.2-2,0.3-4.4,0.3-7.2v-45.3H479v53.2c0,3.6-0.2,7.2-0.8,10.7c-0.4,2.8-1.4,5.5-2.9,8c-1.4,2.3-3.4,4.2-5.7,5.6
	c-2.8,1.6-5.8,2.8-9,3.5c-4.3,1-8.7,1.6-13.1,1.8c-5.1,0.4-11,0.5-17.7,0.5L427.2,209.6z"/>
<path class="st0" d="M603.5,208.6h-36.2L519.6,147h-0.5v61.6h-23.8v-82.3h36.8l47.1,61.7h0.5v-61.7h23.8V208.6z"/>
<path class="st0" d="M674.9,167.9c4.2,0,7.5-0.1,10-0.4c2-0.1,3.9-0.6,5.7-1.6c1.2-0.8,2.1-2,2.5-3.4c0.4-1.9,0.6-3.8,0.6-5.7v-1.4
	c0-1.9-0.2-3.8-0.6-5.6c-0.4-1.4-1.3-2.6-2.5-3.3c-1.8-0.9-3.7-1.4-5.7-1.5c-2.5-0.3-5.8-0.4-9.9-0.4h-30.2v23.4H674.9z M718,208.6
	h-23.9V202c0-2.1-0.1-4.1-0.3-6.2c-0.1-1.5-0.5-3-1.2-4.4c-0.6-1.2-1.5-2.2-2.6-2.9c-1.4-0.8-2.9-1.4-4.5-1.7
	c-2.3-0.4-4.5-0.7-6.8-0.8c-2.7-0.1-5.9-0.2-9.7-0.2h-24.2v22.9h-24v-82.4h63.9c5.5-0.1,11.1,0.3,16.6,1.2c3.7,0.6,7.2,2,10.2,4.2
	c2.5,2,4.3,4.7,5.2,7.8c1.1,3.9,1.5,7.9,1.5,11.9v2.9c0,2.8-0.2,5.7-0.8,8.5c-0.4,2.2-1.3,4.4-2.5,6.3c-1.1,1.7-2.6,3.2-4.4,4.4
	c-2,1.2-4.3,2.1-6.6,2.6v0.5c2.4,0.4,4.8,1,7.1,1.8c1.7,0.6,3.2,1.8,4.3,3.3c1.2,1.7,1.9,3.6,2.2,5.6c0.4,3,0.6,5.9,0.6,8.9
	L718,208.6L718,208.6z"/>
<path class="st0" d="M823.2,208.6h-89.5v-82.4h88.1v18.2h-64.1v14h60.7v17.2h-60.7v14.2h65.5V208.6z"/>
<path class="st0" d="M904.2,176.7l-16.8-33.1h-0.6l-16.7,33.1H904.2z M946.6,208.7h-26.2l-7.5-14.8h-51.4l-7.4,14.8h-25.9l44.2-82.4
	h29.7L946.6,208.7z"/>
<path class="st0" d="M1034.7,208.7h-79.3v-82.4h24.2v63.2h55.1V208.7z"/>
<path class="st0" d="M264.1,191.3L264.1,191.3c-2.8,13.4-15.2,47.9-54.7,66.6l-15.9-17.9L166.7,267c-30.9-0.4-59.8-15.3-78.2-40.1
	c2.8,0.9,5.8,1.4,8.8,1.6c4.4,0.1,9.1-1.5,9.1-8.9v-72.7c0.2-6.6-5-12.2-11.6-12.4c-1.2,0-2.3,0.1-3.5,0.4
	C78.9,137.8,69,168.8,69,168.8c-0.3-28.9,12.2-56.5,34.1-75.4C117.3,81,134.7,73,153.3,70.1c-13.6,7.7-21.2,20.3-21.2,30.9
	c0,17,10.2,14.9,13.3,12.4v98.1c0.5,1.2,1.2,2.4,2,3.4c2.7,3.8,7.2,6,11.9,6c10.2,0,23.6-11.7,23.6-11.7v-79.4
	c0-8.1-6.1-17.8-12.2-21.2c0,0,11.3-2,20,4.7l0,0c1.6-2,3.4-3.9,5.2-5.7c20.3-19.9,39.5-25.6,55.4-28.5l0,0c0,0-29,22.8-29,53.4
	c0,22.7,0.6,78.2,0.6,78.2C233.6,221.1,249.6,206.1,264.1,191.3z"/>
<path class="st0" d="M168,6.3C78.7,6.3,6.3,78.7,6.3,168S78.7,329.7,168,329.7S329.7,257.3,329.7,168c0,0,0,0,0,0
	C329.7,78.7,257.3,6.3,168,6.3z M168,323.3c-85.8,0-155.3-69.5-155.3-155.3S82.2,12.7,168,12.7c85.8,0,155.3,69.5,155.3,155.3
	c0,0,0,0,0,0C323.3,253.8,253.8,323.3,168,323.3L168,323.3z"/>
</svg>
